<?xml version="1.0" encoding="utf-8"?>
<!-- Generator: Adobe Illustrator 16.0.4, SVG Export Plug-In . SVG Version: 6.00 Build 0)  -->
<!DOCTYPE svg PUBLIC "-//W3C//DTD SVG 1.1//EN" "http://www.w3.org/Graphics/SVG/1.1/DTD/svg11.dtd">
<svg version="1.1" id="Ebene_1" xmlns="http://www.w3.org/2000/svg" xmlns:xlink="http://www.w3.org/1999/xlink" x="0px" y="0px"
	 width="246px" height="64px" viewBox="0 0 246 64" enable-background="new 0 0 246 64" xml:space="preserve">
<g>
	<polygon fill="#003361" points="0.526,0.828 0.526,30.564 0.526,30.913 0.875,30.913 30.612,30.913 30.961,30.913 30.961,30.564 
		30.961,0.828 30.961,0.479 30.612,0.479 0.875,0.479 0.526,0.479 0.526,0.828 	"/>
	<polygon fill="none" points="0.526,0.828 0.526,30.564 0.526,30.913 0.875,30.913 30.612,30.913 30.961,30.913 30.961,30.564 
		30.961,0.828 30.961,0.479 30.612,0.479 0.875,0.479 0.526,0.479 0.526,0.828 	"/>
	<polygon fill="#F29100" points="0.524,33.577 0.524,63.305 0.524,63.655 0.875,63.655 30.602,63.655 30.953,63.655 30.953,63.305 
		30.953,33.577 30.953,33.228 30.602,33.228 0.875,33.228 0.524,33.228 0.524,33.577 	"/>
	<polygon fill="#003361" points="207.783,63.288 211.595,63.288 211.595,52.646 220.839,63.288 226.312,63.288 215.486,51.754 
		225.098,42.575 219.905,42.575 211.595,50.98 211.595,33.631 207.783,33.631 207.783,63.288 	"/>
	<path fill="#003361" d="M124.451,63.288h3.648v-2.92h0.082c1.014,1.541,3.364,3.405,7.055,3.405c6.246,0,8.88-5.514,8.88-11.19
		c0-5.557-2.919-10.462-8.919-10.462c-3.61,0-5.678,1.421-6.854,3.326h-0.082v-11.77h-3.811V63.288L124.451,63.288z M140.062,52.867
		c0.082,3.244-1.622,7.826-5.718,7.826c-4.298,0-6.082-4.259-6.082-7.705c0-3.852,1.987-7.785,6.123-7.785
		S140.144,49.137,140.062,52.867L140.062,52.867z"/>
	<polygon fill="#003361" points="48.353,63.264 52.164,63.264 52.164,42.584 48.353,42.584 48.353,63.264 	"/>
	<polygon fill="#003361" points="48.353,37.354 52.164,37.354 52.164,33.545 48.353,33.545 48.353,37.354 	"/>
	<path fill="#003361" d="M59.133,63.288h3.812v-9.569c0-5.028,1.946-8.516,6.285-8.516c3.326,0.203,4.379,2.555,4.379,7.38v10.705
		h3.812V51.001c0-5.554-2.393-8.88-7.745-8.88c-2.878,0-5.636,1.421-6.771,3.771h-0.082v-3.284h-3.69V63.288L59.133,63.288z
		 M83.909,63.288h3.811v-9.569c0-5.028,1.947-8.516,6.286-8.516c3.325,0.203,4.379,2.555,4.379,7.38v10.705h3.812V51.001
		c0-5.554-2.393-8.88-7.745-8.88c-2.879,0-5.637,1.421-6.772,3.771h-0.081v-3.284h-3.69V63.288L83.909,63.288z M106.94,62.64
		c1.744,0.932,3.73,1.134,5.677,1.134c3.688,0,7.217-2.026,7.217-6.446c0-6.61-8.96-5.393-8.96-9.61
		c0-1.703,1.703-2.514,3.648-2.514c0.893,0,3.164,0.526,4.014,1.054l0.325-3.325c-1.501-0.446-2.96-0.811-4.745-0.811
		c-4.095,0-7.298,2.069-7.298,6.367c0,5.798,8.96,5.475,8.96,9.244c0,2.23-2.149,2.961-3.893,2.961
		c-1.095,0-3.244-0.487-4.745-1.461L106.94,62.64L106.94,62.64z M149.23,63.288h3.812v-9.407c0-5.19,2.23-8.434,5.637-8.434
		c0.648,0,1.418,0.079,2.107,0.364v-3.406c-0.811-0.161-1.377-0.284-2.513-0.284c-2.19,0-4.38,1.541-5.393,3.69H152.8v-3.203h-3.569
		V63.288L149.23,63.288z M183.293,42.608h-3.812v9.569c0,5.028-1.946,8.516-6.285,8.516c-3.326-0.204-4.38-2.556-4.38-7.38V42.608
		h-3.811v12.285c0,5.557,2.391,8.88,7.744,8.88c2.88,0,5.636-1.418,6.772-3.77h0.079v3.284h3.692V42.608L183.293,42.608z
		 M203.242,42.932c-1.097-0.446-3.082-0.811-4.623-0.811c-6.326,0-10.544,4.541-10.544,10.826c0,5.921,4.3,10.826,10.544,10.826
		c1.377,0,3.203-0.121,4.785-0.852l-0.285-3.405c-1.174,0.77-2.797,1.177-4.095,1.177c-4.905,0-6.893-4.056-6.893-7.746
		c0-3.934,2.393-7.744,6.649-7.744c1.215,0,2.677,0.285,4.136,0.893L203.242,42.932L203.242,42.932z"/>
	<path fill="#003361" d="M205.377,9.796h-5.473v-7.07l-3.811,1.216v5.854h-4.664v3.082h4.664v12.083
		c0,4.136,2.434,6.001,6.365,6.001c1.215,0,2.392-0.324,3.243-0.568V27.15c-0.566,0.365-1.418,0.73-2.595,0.73
		c-1.744,0-3.203-1.297-3.203-3.69V12.877h5.473V9.796L205.377,9.796z"/>
	<path fill="#003361" d="M243.682,9.796h-5.475v-7.07l-3.812,1.216v5.854h-4.662v3.082h4.662v12.083
		c0,4.136,2.434,6.001,6.367,6.001c1.215,0,2.393-0.324,3.243-0.568V27.15c-0.566,0.365-1.418,0.73-2.595,0.73
		c-1.743,0-3.203-1.297-3.203-3.69V12.877h5.475V9.796L243.682,9.796z"/>
	<polygon fill="#003361" points="183.581,4.641 187.395,4.641 187.395,0.829 183.581,0.829 183.581,4.641 	"/>
	<polygon fill="#003361" points="97.954,4.641 101.765,4.641 101.765,0.829 97.954,0.829 97.954,4.641 	"/>
	<polygon fill="#003361" points="212.947,6.546 216.76,6.546 216.76,2.735 212.947,2.735 212.947,6.546 	"/>
	<polygon fill="#003361" points="219.562,6.546 223.372,6.546 223.372,2.735 219.562,2.735 219.562,6.546 	"/>
	<path fill="#003361" d="M66.201,9.874h-3.811v9.57c0,5.028-1.946,8.515-6.286,8.515c-3.325-0.203-4.378-2.555-4.378-7.38V9.874
		h-3.812v12.287c0,5.555,2.392,8.88,7.745,8.88c2.878,0,5.636-1.419,6.771-3.771h0.081v3.284h3.69V9.874L66.201,9.874z
		 M72.688,30.554H76.5v-9.569c0-5.028,1.946-8.515,6.285-8.515c3.326,0.203,4.379,2.555,4.379,7.38v10.704h3.812V18.268
		c0-5.556-2.393-8.88-7.744-8.88c-2.879,0-5.637,1.419-6.772,3.771h-0.082V9.874h-3.69V30.554L72.688,30.554z M97.951,30.554h3.811
		V9.874h-3.811V30.554L97.951,30.554z M125.321,9.874h-3.812l-5.717,16.868h-0.082l-5.595-16.868h-4.176l7.421,20.68h4.541
		L125.321,9.874L125.321,9.874z M144.865,25.891c-0.934,0.771-3.852,2.068-6.365,2.068c-3.609,0-6.812-2.798-6.812-6.894h14.76
		c0-6.649-2.23-11.678-9.124-11.678c-5.838,0-9.69,4.338-9.69,10.462c0,6.731,3.365,11.191,10.704,11.191
		c3.405,0,5.069-0.812,6.528-1.338V25.891L144.865,25.891z M131.688,18.228c0.282-2.676,1.823-5.758,5.555-5.758
		c3.284,0,5.15,2.595,5.15,5.758H131.688L131.688,18.228z M151.556,30.554h3.812v-9.407c0-5.19,2.229-8.434,5.636-8.434
		c0.648,0,1.418,0.081,2.108,0.365V9.671c-0.811-0.162-1.38-0.284-2.514-0.284c-2.189,0-4.379,1.541-5.395,3.69h-0.08V9.874h-3.568
		V30.554L151.556,30.554z M165.584,29.905c1.744,0.933,3.731,1.136,5.678,1.136c3.691,0,7.218-2.028,7.218-6.448
		c0-6.609-8.962-5.393-8.962-9.61c0-1.703,1.703-2.514,3.651-2.514c0.89,0,3.161,0.527,4.013,1.054l0.325-3.324
		c-1.5-0.446-2.961-0.812-4.745-0.812c-4.096,0-7.298,2.068-7.298,6.366c0,5.798,8.961,5.474,8.961,9.245
		c0,2.23-2.148,2.96-3.893,2.96c-1.095,0-3.243-0.487-4.743-1.46L165.584,29.905L165.584,29.905z M183.588,30.554h3.812V9.874
		h-3.812V30.554L183.588,30.554z M211.324,14.578c1.539-1.297,3.852-2.108,6-2.108c3.811,0,5.108,1.824,5.108,5.393
		c-1.5-0.081-2.554-0.081-4.054-0.081c-3.934,0-9.611,1.622-9.611,6.812c0,4.501,3.123,6.448,7.583,6.448
		c3.487,0,5.516-1.906,6.407-3.163h0.08v2.676h3.569c-0.082-0.608-0.162-1.703-0.162-4.055v-8.556c0-5.636-2.393-8.556-8.312-8.556
		c-2.636,0-4.906,0.812-6.813,1.946L211.324,14.578L211.324,14.578z M222.433,22.525c0,3.082-1.985,5.434-5.757,5.434
		c-1.743,0-3.852-1.176-3.852-3.366c0-3.649,5.108-3.974,7.175-3.974c0.812,0,1.623,0.081,2.434,0.081V22.525L222.433,22.525z"/>
</g>
</svg>
