<?xml version="1.0" standalone="no"?>
<!DOCTYPE svg PUBLIC "-//W3C//DTD SVG 20010904//EN"
 "http://www.w3.org/TR/2001/REC-SVG-20010904/DTD/svg10.dtd">
<svg version="1.0" xmlns="http://www.w3.org/2000/svg"
 width="512.000000pt" height="512.000000pt" viewBox="0 0 512.000000 512.000000"
 preserveAspectRatio="xMidYMid meet">
<metadata>
Created by potrace 1.14, written by Peter Selinger 2001-2017
</metadata>
<g transform="translate(0.000000,512.000000) scale(0.100000,-0.100000)"
fill="#000000" stroke="none">
<path d="M2547 4739 c-8 -13 -59 -100 -112 -194 -54 -93 -148 -255 -208 -360
-101 -175 -157 -271 -206 -357 -38 -68 -221 -384 -230 -398 -5 -8 -58 -100
-118 -204 -149 -260 -149 -260 -208 -361 -29 -49 -61 -106 -72 -125 -11 -19
-138 -240 -283 -490 -145 -250 -281 -486 -303 -525 -22 -38 -79 -137 -127
-220 -48 -82 -98 -170 -112 -195 -14 -25 -48 -83 -75 -130 -86 -148 -373 -644
-413 -715 -10 -16 -31 -54 -48 -83 -17 -28 -30 -52 -28 -52 2 0 17 12 34 28
16 15 53 48 83 73 96 83 309 268 359 313 20 17 67 58 105 91 64 55 120 104
149 130 6 6 43 37 81 70 39 33 72 62 75 65 3 3 57 50 120 105 63 55 120 104
126 110 6 5 37 33 70 60 32 28 79 68 104 90 74 64 328 286 425 370 33 29 139
121 235 205 181 158 261 227 340 295 44 38 170 148 195 170 6 6 22 20 36 33
l26 22 179 -156 c98 -86 206 -180 238 -208 105 -91 139 -121 156 -136 9 -8 63
-55 120 -105 58 -49 121 -104 140 -121 19 -17 94 -82 165 -144 72 -62 157
-136 190 -165 33 -29 121 -105 195 -170 124 -107 227 -197 270 -235 10 -8 44
-37 75 -65 32 -27 63 -55 69 -60 6 -6 79 -68 161 -139 83 -71 159 -138 170
-150 11 -12 30 -28 41 -36 12 -8 52 -42 90 -76 38 -33 110 -96 159 -139 50
-43 101 -88 114 -99 21 -19 20 -15 -10 39 -18 33 -50 89 -71 124 -21 34 -38
65 -38 67 0 3 -11 22 -25 44 -14 22 -38 64 -54 92 -25 47 -187 329 -210 368
-5 8 -96 165 -203 349 -106 184 -205 355 -220 380 -15 25 -33 57 -41 71 -7 14
-65 115 -129 225 -64 110 -125 216 -135 235 -11 19 -93 161 -183 315 -89 154
-172 297 -184 318 -11 21 -25 46 -31 55 -5 9 -25 44 -44 77 -46 80 -209 356
-221 375 -6 8 -13 21 -17 29 -3 8 -66 117 -140 244 -73 126 -133 232 -133 234
0 2 -13 24 -30 48 -16 24 -30 46 -30 49 0 3 -14 29 -31 58 -18 29 -39 67 -49
83 -114 199 -295 512 -301 519 -4 4 -14 -2 -22 -15z"/>
</g>
</svg>
