<?xml version="1.0" standalone="no"?>
<!DOCTYPE svg PUBLIC "-//W3C//DTD SVG 20010904//EN"
 "http://www.w3.org/TR/2001/REC-SVG-20010904/DTD/svg10.dtd">
<svg version="1.0" xmlns="http://www.w3.org/2000/svg"
 width="700.000000pt" height="700.000000pt" viewBox="0 0 700.000000 700.000000"
 preserveAspectRatio="xMidYMid meet">
<metadata>
Created by potrace 1.14, written by Peter Selinger 2001-2017
</metadata>
<g transform="translate(0.000000,700.000000) scale(0.100000,-0.100000)"
fill="#000000" stroke="none">
<path d="M3460 6438 c-24 -40 -72 -122 -106 -181 -35 -60 -64 -110 -64 -113 0
-2 -16 -28 -35 -58 -19 -30 -35 -57 -35 -60 0 -3 -27 -51 -60 -106 -33 -55
-60 -103 -60 -106 0 -2 -8 -17 -19 -32 -10 -15 -64 -106 -119 -202 -55 -96
-110 -191 -121 -210 -12 -19 -27 -47 -33 -62 -7 -16 -15 -28 -19 -28 -4 0 -10
-11 -13 -25 -4 -14 -11 -25 -16 -25 -6 0 -10 -4 -10 -9 0 -5 -32 -65 -71 -133
-39 -67 -83 -143 -97 -168 -14 -25 -42 -74 -64 -109 -21 -34 -38 -67 -38 -72
0 -5 -5 -9 -12 -9 -6 0 -8 -3 -5 -7 4 -3 3 -11 -2 -17 -5 -6 -57 -94 -115
-196 -58 -102 -110 -192 -115 -200 -12 -18 -124 -213 -164 -285 -16 -27 -39
-67 -53 -87 -13 -21 -24 -39 -24 -42 0 -4 -182 -319 -200 -346 -6 -8 -13 -22
-17 -30 -4 -8 -28 -51 -54 -95 -49 -85 -298 -516 -331 -575 -11 -19 -44 -75
-73 -125 -51 -88 -101 -175 -297 -515 -53 -91 -169 -293 -260 -450 -91 -157
-176 -305 -190 -330 -14 -25 -65 -112 -113 -195 -48 -82 -98 -169 -112 -193
-13 -23 -54 -93 -90 -155 -36 -62 -78 -134 -93 -162 -15 -27 -57 -101 -94
-164 -36 -62 -58 -107 -49 -100 37 30 67 55 82 69 9 9 68 61 131 115 63 55
117 102 120 105 3 3 55 48 115 100 61 52 115 100 121 105 6 6 35 31 64 56 29
24 62 53 74 64 19 17 187 164 270 235 16 14 48 41 70 62 23 20 115 100 206
179 151 130 223 192 334 290 23 20 151 132 286 249 135 117 272 236 305 265
33 29 103 90 155 135 52 45 111 97 130 114 20 17 67 58 105 91 66 57 124 107
149 130 17 15 453 395 500 435 23 19 94 81 158 137 l117 103 93 -81 c51 -45
107 -93 123 -108 17 -14 80 -69 140 -121 61 -52 112 -97 115 -100 3 -3 41 -37
85 -75 44 -38 82 -71 85 -74 3 -4 21 -19 40 -35 19 -16 64 -54 100 -86 78 -69
541 -472 625 -544 32 -28 98 -85 145 -126 46 -41 98 -86 114 -100 16 -14 39
-34 52 -45 12 -11 48 -42 80 -70 32 -27 79 -68 104 -90 25 -22 77 -67 115
-100 38 -33 76 -67 85 -75 9 -8 45 -40 81 -70 35 -30 66 -57 69 -60 3 -3 73
-64 155 -135 83 -71 152 -132 155 -135 3 -3 37 -32 75 -65 39 -33 72 -62 75
-65 3 -3 39 -34 80 -70 41 -36 80 -69 86 -75 12 -11 65 -56 259 -225 72 -62
144 -124 160 -139 107 -95 187 -162 190 -159 2 1 -36 71 -84 153 -128 219
-350 604 -376 650 -12 22 -55 96 -95 165 -40 68 -82 140 -93 160 -16 30 -198
344 -412 715 -32 55 -65 114 -75 130 -18 32 -377 653 -505 875 -43 74 -93 160
-110 190 -17 30 -101 174 -185 320 -84 146 -169 292 -187 325 -60 106 -83 146
-213 365 -107 181 -530 911 -565 975 -5 11 -18 31 -26 45 -9 14 -87 149 -174
300 -314 545 -378 655 -385 663 -5 5 -27 -24 -50 -65z"/>
</g>
</svg>
